# xmcd
#
# Track frame offsets: 
#        150
#        14465
#        30279
#        45075
#        57540
#        69178
#        81270
#        95586
#        106938
#        119454
#        134314
#        146691
#        162434
#        174870
#        188633
#
# Disc length: 2674 seconds
#
# Revision: 0
# Processed by: cddbd v1.4PL0 Copyright (c) Steve Scherf et al.
# Submitted via: ExactAudioCopy v0.90b4
#
DISCID=bd0a700f
DTITLE=01_KULTUR._2002 - RAUS GEPUTZT
DYEAR=2002
DGENRE=Samba
TTITLE0=IT'S RAINING MEN
TTITLE1=FIDATI DI ME
TTITLE2=STOP LOVING YOU
TTITLE3=CAN'T HURRY LOVE
TTITLE4=AQUARIUS
TTITLE5=25 OR 6 TO 4
TTITLE6=HEAL THE WORLD
TTITLE7=SAY YOU WILL
TTITLE8=ESMERALDA
TTITLE9=DOESN'T REALLY MATTER
TTITLE10=LIVING ON A PRAYER
TTITLE11=ONLY YOU
TTITLE12=GLORIA ESTEFAN MIX
TTITLE13=SLEEPING SATELLITE
TTITLE14=OH HAPPY DAY
EXTD=SAMBAfest 2003 in Coburg
EXTT0=
EXTT1=
EXTT2=
EXTT3=
EXTT4=
EXTT5=
EXTT6=
EXTT7=
EXTT8=
EXTT9=
EXTT10=
EXTT11=
EXTT12=
EXTT13=
EXTT14=
PLAYORDER=
